<svg xmlns="http://www.w3.org/2000/svg" viewBox="0 0 24 24"><defs><style>.cls-1{fill:#818182;}</style></defs><title>icon-language</title><g id="圖層_2" data-name="圖層 2"><g id="圖層_1-2" data-name="圖層 1"><path class="cls-1" d="M13.14,8.17c0-.07.35-.1.41-.1S13.36,8.52,13.14,8.17ZM11,5.1l.11,0c.06,0-.07.09,0,.13s0,.25,0,.34-.11,0-.15.09.26.07.26.08-.37.09-.3.17.82-.19.7-.17c.23-.11,0-.13-.09-.19-.05-.22-.08-.55-.22-.68l.09-.1C11.15,4.44,11,5.1,11,5.1ZM24,12A12,12,0,1,1,12,0,12,12,0,0,1,24,12ZM15.69,6.63c0-.15-.19-.28-.38,0s-.11.44-.19.56.57.33.57.17.73-.06.87,0,.64-.22.21-.38-.54-.27-.57-.52c0,0,.19-.18.1-.17S15.69,7,15.69,6.63ZM22,12a9.54,9.54,0,0,0-.36-2.63A.62.62,0,0,0,21.27,9c-.26-.1-1.34.6-1.5.25s-.32.15-.57,0-.46-.51-.61-.46c-.31.11.48,1,.69,1.08.2-.15.85-.47,1,0,.27.8-.73,1.68-1.25,2.15-.77.69-.62-.45-1.14-.85-.28-.21-.28-.66-.55-.82a3.17,3.17,0,0,1-.69-.81l0,.17c-.09.07-.29-.27-.31-.33,0,.3.48.77.63,1a9.85,9.85,0,0,0,.75,1.32c.18.18.86.92,1,.9s.8-.46.91-.43c.64.15-1.52,3.2-1.72,3.58s.14,1.1.11,1.48-.37.57-.69.8-.27.75-.56.93c-.52.32-.89,1.35-1.62,1.35-.22,0-1.14.36-1.26,0a5.81,5.81,0,0,0-.36-.7c-.13-.25,0-.5-.17-.72s-.47-.5-.51-.68.12-.63.28-.71,0-.46,0-.65a1.32,1.32,0,0,0-.53-.85c-.39-.3-.19-.54-.1-1,0-.2-.12-.47-.4-.39-.56.16-.39-.44-.8-.41a3.72,3.72,0,0,0-.81.29,2.47,2.47,0,0,1-1-.13c-1.41-.17-1.87-1.78-1.5-2.94,0-.19-.12-.54-.05-.69a3.77,3.77,0,0,1,.76-1c.16-.15.36-.11.55-.22s.29-.56.57-.79a2.87,2.87,0,0,1,1.47-.38c.28,0,1.33-.27,1.5-.06,0,0,.19.6,0,.57.43,0,1.05.75,1.46.58.21-.09.14-.74.57-.43a2.44,2.44,0,0,0,1.68.07c.15-.12.23-.93.05-1,.12.12-.61.13-.68.1s-.23.11-.42,0c.11.05-.65-.36-.22-.67-.18.13-.35,0-.54.11s.06.18-.13.27-.53-.53-.64-.6-1-.71-.77-.3l.79.79s-.21-.29-.21-.06c.05-.14,0,.58-.1.35s.09-.14,0-.27-.23-.17-.27-.23A2.93,2.93,0,0,0,12.69,7a6,6,0,0,0-.82.11,1.92,1.92,0,0,0-.18.31,2.1,2.1,0,0,0-.42.22L11.11,8a8,8,0,0,1-.77.3c0-.07-.48-.17-.45-.32a3.2,3.2,0,0,0,.17-.87c-.05-.2,1.07.29,1.15-.23,0-.23,0-.49-.32-.53a2.42,2.42,0,0,0,.8-.36,1.26,1.26,0,0,1,.73-.44c.28,0,.22-.41.35-.62.13.06-.07.38.09.51,0-.1.44.06.49,0s.68,0,.59-.29.05-.19.18-.25.34-.62.4-.42c0-.21-.42.08-.55.07-.31,0-.18-.52-.06-.67s-.24-.25-.25,0-.31.62-.24,1.06c.11.66-.73-.16-.81-.11-.28.17-.51-.22-.36-.45s.5-.22.65-.47a1.79,1.79,0,0,1,.38-.52c.54-.45.69-.09,1.22,0s.18.12.1.32.29.26.41.1a2.43,2.43,0,0,0,.3-.5c.09-.22.9-.19.34-.53A9,9,0,0,0,12.55,2c-.24,0-.4.26-.58.41-.36.29-1.27.87-1.78.7s-1.63.66-1.8.66,0-.63.35-.68c-.15,0,1.25-.71,1.21-.86s-2.8.82-2.67,1,.3.09,0,.29-.37.8-.54.8c-.5.22-.54-.43-1.1.41l-.89.36a9.93,9.93,0,0,0-2.58,5.18c0,.08.33.23.38.28a4.12,4.12,0,0,1,.16.9,5.07,5.07,0,0,0,.74,1.18,2.21,2.21,0,0,1,.33,1.19c.11-.18,1.07.81,1.25,1,.41.49.73,1.08.06,1.56-.22.15.33,1.13,0,1.37l-.36.09c-.36.22-.2.76,0,1A10,10,0,0,0,22,12ZM10.48,5.64c.12,0,.29,0,.31-.22s0,0,.08-.1-.07-.13-.11-.14-.11.07-.15.1l-.07,0-.07.09v.05l-.09.1C10.31,5.63,10.39,5.68,10.48,5.64Z"/></g></g></svg>